<svg
    xmlns="http://www.w3.org/2000/svg"
    xmlnsXlink="http://www.w3.org/1999/xlink"
    viewBox="0 0 42 40"
  >
    <path
      d="M41.7855 15.4036C41.6165 15.2067 41.3697 15.0931 41.109 15.0931H39.2582V5.11518C39.2582 4.43167 38.7023 3.87574 38.0188 3.87574H16.5207L14.7786 0.972738C14.5564 0.601186 14.1491 0.370544 13.7158 0.370544H4.04288C3.36006 0.371245 2.80414 0.92717 2.80414 1.60998V15.0924H0.890301C0.630916 15.0924 0.384851 15.2052 0.215901 15.4015C0.046249 15.5978 -0.0294633 15.8579 0.00979493 16.1166L3.45681 38.8681C3.5206 39.3014 3.89916 39.6288 4.33802 39.6288H37.6612C38.1001 39.6288 38.4787 39.3014 38.5418 38.871L41.9895 16.1194C42.0294 15.8621 41.9551 15.6013 41.7855 15.4036ZM4.20622 1.77333H13.624L15.3661 4.67633C15.5883 5.04788 15.9956 5.27853 16.4289 5.27853H37.8561V15.0931H37.1551V12.2889H36.4541V10.1858H35.753V8.08268H6.30934V10.1858H5.6083V12.2889H4.90726V15.0931H4.20622V1.77333ZM6.30934 13.691H35.753V15.0931H6.30934V13.691ZM7.01038 11.5879H35.052V12.2889H7.01038V11.5879ZM34.3509 10.1858H7.71142V9.48477H34.3509V10.1858ZM37.2217 38.2274H4.77757L1.48548 16.4952H2.80414H4.90726H37.1551H39.2582H40.5145L37.2217 38.2274Z"
      fill="#808080"
    />
</svg>